<svg xmlns="http://www.w3.org/2000/svg" viewBox="0 0 100 100" width="100" height="100">
  <!-- 背景円 -->
  <circle cx="50" cy="50" r="48" fill="#121212" stroke="#8B7355" stroke-width="2"/>
  
  <!-- 下側の曲線を計算してパスを定義 -->
  <!-- 背面のS - より太く、少し透明度あり -->
  <path d="M70,35 C70,25 60,20 50,20 C40,20 30,25 30,35 
           C30,45 70,55 70,65 C70,75 60,80 50,80 
           C40,80 30,75 30,65" 
        fill="none" stroke="#A58D7F" stroke-width="12" stroke-linecap="round" opacity="0.7"/>
  
  <!-- 前面のS - よりシャープで鮮明 -->
  <path d="M70,35 C70,25 60,20 50,20 C40,20 30,25 30,35 
           C30,45 70,55 70,65 C70,75 60,80 50,80 
           C40,80 30,75 30,65" 
        fill="none" stroke="#8B7355" stroke-width="6" stroke-linecap="round"/>
</svg>